<svg width="240" height="39" viewBox="0 0 240 39" fill="none" xmlns="http://www.w3.org/2000/svg">
<g clip-path="url(#clip0_555_488)">
<path d="M27.9674 0.878913C20.2424 0.874913 12.1824 2.61491 4.04745 4.87191C3.01445 5.07991 2.00645 5.75591 1.47345 6.59191C0.98345 7.37991 0.80545 8.17091 0.65245 8.99991C-0.13755 13.4279 -0.0415503 17.7759 0.12245 22.5939C0.15845 23.6969 0.32245 25.0039 0.83745 25.7989C1.37545 26.6019 2.29745 27.1119 3.39845 27.2789C4.80505 27.4852 6.21607 27.6603 7.63045 27.8039L7.31845 36.5019C7.27045 37.1939 7.60845 37.7689 8.02845 38.0999C8.40445 38.3859 8.82345 38.5129 9.25345 38.5449C10.1135 38.6099 11.1225 38.2419 11.6235 37.2879C13.8185 33.0639 15.1955 31.1989 17.9405 28.3929C25.0985 28.5689 31.3475 28.1709 38.4225 27.6479C40.9235 27.5829 42.6405 25.5379 43.0945 23.9049C44.4515 19.6729 44.6624 14.4489 44.8064 9.16791C44.8674 7.07491 44.1414 5.01991 42.8564 3.93391C41.6344 2.94291 40.1545 2.58391 38.7985 2.21591C35.0315 1.36291 31.2634 0.904913 27.9674 0.878913ZM38.2575 4.18891C39.6155 4.55791 40.8125 4.91291 41.5675 5.52591C42.8275 6.86491 42.7854 7.75591 42.7674 9.20091C42.6254 14.3229 42.3794 19.2939 41.2234 23.0609C40.7254 24.4659 39.8574 25.4659 38.2174 25.6169C31.0094 26.1499 24.7555 26.5619 17.5105 26.3559C17.3694 26.3514 17.2289 26.3759 17.0976 26.4278C16.9664 26.4798 16.8472 26.5581 16.7474 26.6579C13.7034 29.7319 12.1465 31.8679 9.82645 36.3339C9.77245 36.4359 9.65545 36.4979 9.51145 36.5089C9.41445 36.5039 9.37545 36.4289 9.36945 36.3609L9.68345 26.9289C9.70245 26.4199 9.28245 25.9339 8.77645 25.8789C7.08457 25.7173 5.3973 25.5106 3.71645 25.2589C2.99045 25.1479 2.72245 24.9489 2.52345 24.6529C2.17745 23.8279 2.18545 23.3179 2.15845 22.5249C1.99645 17.7499 1.91645 13.5769 2.64945 9.42491C2.71745 8.81091 2.94745 8.18291 3.19145 7.65791C3.59545 7.02591 4.21445 6.93291 4.83545 6.76091C12.7914 4.56391 20.5754 2.92091 27.9035 2.91591C31.4955 3.04591 35.2675 3.40591 38.2575 4.18891ZM10.7785 12.2789C9.68245 13.5919 9.79145 15.3749 10.6384 16.5689C11.0804 17.1939 11.7704 17.6969 12.6104 17.8109C13.7014 17.9009 14.3935 17.4589 15.1405 16.9509C16.4935 15.7749 16.6305 13.7229 15.6014 12.2409C15.0774 11.4859 14.2395 11.0329 13.3835 11.0009C12.2115 11.0129 11.4155 11.5359 10.7785 12.2779V12.2789ZM22.6345 11.2069C21.5425 11.2419 20.6595 11.9979 20.1205 12.8139C19.5035 13.7469 19.1435 14.9149 19.6425 16.0599C20.6025 18.2629 23.9195 18.2359 25.2425 15.9969C25.8525 14.9649 25.6965 13.7919 25.2425 12.9409C24.7905 12.0909 24.1065 11.3979 23.1115 11.2389C22.9538 11.213 22.7941 11.2023 22.6345 11.2069ZM32.2594 11.4139C31.9194 11.4059 31.5694 11.4379 31.2414 11.5249C29.9294 11.8749 28.8125 13.2289 28.9815 14.9619C29.0675 15.8339 29.4685 16.6839 30.1915 17.2699C30.9145 17.8549 31.9644 18.1169 33.0714 17.8899C34.3434 17.6299 35.1315 16.6049 35.3945 15.6149C35.6575 14.6249 35.5914 13.6159 34.9804 12.7979C34.6625 12.3752 34.2522 12.0307 33.7808 11.7908C33.3093 11.551 32.7883 11.422 32.2594 11.4139ZM13.2944 13.0369C13.5394 13.0389 13.7324 13.1169 13.9314 13.4029C14.3764 14.0449 14.2525 15.0179 13.8035 15.4079C13.3565 15.7979 13.0774 15.8319 12.8814 15.8059C12.6854 15.7789 12.4864 15.6439 12.3084 15.3919C11.9684 14.9119 11.8684 14.1359 12.3154 13.5819C12.5534 13.2659 12.9905 13.0689 13.2955 13.0369H13.2944ZM22.7775 13.2599C22.8155 13.2659 23.2414 13.5129 23.4454 13.8959C23.6494 14.2789 23.6875 14.6349 23.4935 14.9619C22.9165 15.9379 21.6895 15.6739 21.5035 15.2489C21.4335 15.0869 21.4865 14.4359 21.8235 13.9289C22.1585 13.4199 22.5805 13.2289 22.7775 13.2589V13.2599ZM33.3414 14.0079C33.4034 14.0909 33.5545 14.6479 33.4375 15.0899C33.3195 15.5319 33.1275 15.8049 32.6575 15.9009C32.0555 16.0249 31.7175 15.9009 31.4645 15.6939C31.2105 15.4889 31.0395 15.1419 31.0025 14.7709C30.9125 13.8509 31.2425 13.6379 31.7665 13.4979C32.3765 13.3479 33.0664 13.6099 33.3414 14.0079Z" fill="white"/>
<path d="M57.6104 4.99577C57.6264 4.73577 57.7214 4.50177 57.8974 4.29477C57.983 4.19329 58.0906 4.11264 58.2121 4.05893C58.3336 4.00522 58.4656 3.97986 58.5984 3.98477H65.4244C65.6544 3.98477 65.8914 4.08077 66.1364 4.27177C66.2512 4.35419 66.3445 4.46297 66.4085 4.58895C66.4726 4.71493 66.5054 4.85445 66.5043 4.99577V15.8888H77.9254V4.99577C77.9254 4.71977 78.0213 4.48277 78.2123 4.28377C78.4043 4.08377 78.6524 3.98377 78.9594 3.98377H85.6934C85.9994 3.98377 86.2674 4.06077 86.4974 4.21377C86.7274 4.36777 86.8424 4.61277 86.8424 4.94977V37.0998C86.8424 37.4368 86.7424 37.6898 86.5424 37.8578C86.3444 38.0268 86.0834 38.1108 85.7624 38.1108H78.9594C78.6534 38.1108 78.4043 38.0268 78.2123 37.8578C78.0213 37.6898 77.9254 37.4378 77.9254 37.0998V24.0468H66.5043V37.0998C66.5043 37.4218 66.4004 37.6698 66.1944 37.8468C65.9874 38.0228 65.7073 38.1108 65.3543 38.1108H58.5984C57.9554 38.1108 57.6264 37.8118 57.6104 37.2148V4.99577ZM120.485 37.7208C120.286 37.8888 120.075 37.9958 119.853 38.0418C119.646 38.0865 119.435 38.1099 119.222 38.1118H115.752C115.476 38.1118 115.238 38.0618 115.039 37.9618C114.839 37.8618 114.671 37.7278 114.533 37.5598C114.392 37.3853 114.276 37.1917 114.189 36.9848C114.097 36.7686 114.02 36.546 113.959 36.3188L113.247 33.3768C113.017 33.8518 112.684 34.3918 112.247 34.9968C111.775 35.6388 111.214 36.2111 110.581 36.6968C109.907 37.2268 109.102 37.6708 108.168 38.0308C107.233 38.3908 106.161 38.5708 104.95 38.5708C103.204 38.5708 101.618 38.2338 100.193 37.5598C98.7982 36.9079 97.557 35.968 96.5514 34.8018C95.5484 33.6378 94.7704 32.2778 94.2194 30.7218C93.6674 29.1678 93.3913 27.5088 93.3913 25.7478V10.6948C93.3913 10.1128 93.5184 9.67277 93.7714 9.37377C94.0234 9.07477 94.4253 8.92577 94.9773 8.92577H100.285C100.945 8.92577 101.396 9.03577 101.641 9.25877C101.886 9.48077 102.009 9.91377 102.009 10.5568V25.5168C102.009 26.1768 102.159 26.8008 102.457 27.3908C102.756 27.9808 103.15 28.5008 103.641 28.9528C104.131 29.4048 104.686 29.7618 105.307 30.0218C105.927 30.2818 106.559 30.4118 107.203 30.4118C107.754 30.4118 108.325 30.2818 108.915 30.0218C109.509 29.7584 110.059 29.4057 110.546 28.9758C111.044 28.5398 111.454 28.0258 111.776 27.4358C112.098 26.8458 112.258 26.2218 112.258 25.5638V10.6258C112.258 10.3658 112.308 10.1058 112.408 9.84477C112.508 9.58477 112.657 9.38477 112.856 9.24677C113.055 9.12477 113.243 9.04077 113.419 8.99477C113.595 8.94877 113.799 8.92477 114.028 8.92477H119.222C119.88 8.92477 120.355 9.08677 120.646 9.40777C120.937 9.72977 121.083 10.1588 121.083 10.6948V36.4108C121.083 36.7008 121.018 36.9698 120.888 37.2148C120.758 37.4598 120.578 37.6518 120.348 37.7888L120.485 37.7208ZM147.166 34.5488C146.752 34.9628 146.296 35.4068 145.799 35.8818C145.301 36.3568 144.753 36.8018 144.156 37.2148C143.555 37.6304 142.908 37.9738 142.226 38.2378C141.515 38.5099 140.758 38.6463 139.996 38.6398C137.913 38.6398 135.994 38.2498 134.239 37.4678C132.529 36.7171 130.988 35.6263 129.712 34.2618C128.448 32.9058 127.46 31.3088 126.748 29.4698C126.035 27.6318 125.679 25.6558 125.679 23.5408C125.679 21.4108 126.035 19.4308 126.748 17.6008C127.46 15.7708 128.448 14.1768 129.712 12.8208C130.987 11.4575 132.528 10.3704 134.239 9.62677C135.994 8.85277 137.913 8.46577 139.996 8.46577C140.839 8.46577 141.609 8.58877 142.306 8.83377C142.979 9.06678 143.62 9.38325 144.213 9.77577C144.788 10.1588 145.316 10.5918 145.799 11.0738C146.281 11.5568 146.737 12.0278 147.166 12.4878V1.98477C147.166 1.49477 147.316 1.08177 147.614 0.74477C147.913 0.40677 148.361 0.23877 148.959 0.23877H154.129C154.329 0.23877 154.539 0.28077 154.761 0.36477C154.983 0.44977 155.186 0.56777 155.371 0.72177C155.554 0.87477 155.703 1.05877 155.818 1.27277C155.933 1.48777 155.991 1.72477 155.991 1.98477V36.3418C155.991 37.5218 155.371 38.1118 154.129 38.1118H149.625C149.319 38.1118 149.081 38.0718 148.913 37.9958C148.746 37.9209 148.6 37.8066 148.487 37.6628C148.359 37.4941 148.255 37.3087 148.177 37.1118C148.069 36.8523 147.954 36.5956 147.833 36.3418L147.166 34.5488ZM133.952 23.5408C133.945 24.5072 134.104 25.4676 134.423 26.3798C134.737 27.2598 135.185 28.0228 135.768 28.6658C136.357 29.3138 137.072 29.8339 137.87 30.1938C138.69 30.5698 139.598 30.7568 140.594 30.7568C141.574 30.7568 142.497 30.5808 143.363 30.2288C144.204 29.8919 144.973 29.3962 145.626 28.7688C146.276 28.1405 146.802 27.3964 147.178 26.5748C147.568 25.7318 147.787 24.8278 147.833 23.8628V23.5408C147.837 22.5791 147.649 21.6263 147.281 20.7378C146.925 19.8667 146.407 19.0712 145.753 18.3938C145.098 17.7171 144.318 17.1746 143.455 16.7968C142.554 16.4018 141.579 16.2021 140.594 16.2108C139.598 16.2108 138.69 16.4058 137.87 16.7968C137.05 17.1868 136.35 17.7198 135.768 18.3938C135.177 19.0837 134.721 19.8789 134.423 20.7378C134.108 21.6384 133.949 22.5864 133.953 23.5408H133.952ZM182.672 34.5488C182.258 34.9628 181.802 35.4068 181.304 35.8818C180.806 36.3568 180.258 36.8018 179.661 37.2148C179.06 37.6304 178.413 37.9738 177.731 38.2378C177.02 38.5099 176.263 38.6463 175.501 38.6398C173.418 38.6398 171.499 38.2498 169.745 37.4678C168.034 36.7172 166.494 35.6264 165.217 34.2618C163.954 32.9058 162.965 31.3088 162.253 29.4698C161.541 27.6318 161.184 25.6558 161.184 23.5408C161.184 21.4108 161.541 19.4308 162.253 17.6008C162.965 15.7708 163.953 14.1768 165.217 12.8208C166.492 11.4574 168.033 10.3703 169.745 9.62677C171.499 8.85277 173.418 8.46577 175.501 8.46577C176.344 8.46577 177.114 8.58877 177.811 8.83377C178.484 9.06678 179.125 9.38325 179.718 9.77577C180.293 10.1588 180.821 10.5918 181.304 11.0738C181.787 11.5568 182.242 12.0278 182.671 12.4878V1.98477C182.671 1.49477 182.821 1.08177 183.119 0.74477C183.419 0.40677 183.866 0.23877 184.464 0.23877H189.634C189.834 0.23877 190.044 0.28077 190.266 0.36477C190.489 0.44977 190.692 0.56777 190.876 0.72177C191.059 0.87477 191.209 1.05877 191.324 1.27277C191.438 1.48777 191.496 1.72477 191.496 1.98477V36.3418C191.496 37.5218 190.876 38.1118 189.634 38.1118H185.13C184.824 38.1118 184.586 38.0718 184.418 37.9958C184.252 37.9207 184.106 37.8065 183.993 37.6628C183.865 37.4941 183.761 37.3087 183.683 37.1118C183.575 36.8523 183.46 36.5956 183.338 36.3418L182.672 34.5488ZM169.457 23.5408C169.45 24.5072 169.609 25.4676 169.928 26.3798C170.243 27.2598 170.691 28.0228 171.273 28.6658C171.862 29.3139 172.578 29.8341 173.376 30.1938C174.196 30.5698 175.103 30.7568 176.099 30.7568C177.079 30.7568 178.002 30.5808 178.868 30.2288C179.71 29.892 180.478 29.3963 181.132 28.7688C181.781 28.1403 182.307 27.3962 182.682 26.5748C183.073 25.7318 183.292 24.8278 183.338 23.8628V23.5408C183.342 22.5791 183.154 21.6263 182.786 20.7378C182.43 19.8667 181.912 19.0712 181.258 18.3938C180.603 17.7171 179.823 17.1746 178.96 16.7968C178.059 16.4018 177.084 16.2021 176.099 16.2108C175.103 16.2108 174.195 16.4058 173.376 16.7968C172.556 17.1868 171.855 17.7198 171.273 18.3938C170.682 19.0837 170.226 19.8789 169.928 20.7378C169.613 21.6384 169.453 22.5864 169.457 23.5408ZM197.61 2.00777C197.61 1.51777 197.732 1.10477 197.977 0.76777C198.223 0.42977 198.644 0.26177 199.241 0.26177H204.871C205.025 0.26177 205.186 0.30377 205.354 0.38777C205.531 0.478357 205.69 0.599182 205.825 0.74477C205.971 0.89777 206.093 1.08177 206.193 1.29577C206.293 1.51077 206.343 1.74777 206.343 2.00777V36.3418C206.343 36.9238 206.178 37.3638 205.848 37.6628C205.519 37.9618 205.094 38.1108 204.573 38.1108H199.241C198.644 38.1108 198.223 37.9608 197.977 37.6628C197.732 37.3638 197.61 36.9228 197.61 36.3418V2.00777ZM236.31 34.6178C234.978 35.8487 233.437 36.833 231.76 37.5248C230.062 38.2246 228.242 38.5801 226.405 38.5708C224.305 38.5708 222.322 38.1878 220.453 37.4208C218.627 36.6825 216.957 35.6025 215.535 34.2388C214.119 32.8725 212.979 31.2454 212.18 29.4468C211.352 27.6088 210.939 25.6098 210.939 23.4488C210.939 22.1008 211.103 20.7948 211.433 19.5308C211.752 18.294 212.223 17.1016 212.835 15.9808C213.441 14.8776 214.182 13.8546 215.041 12.9358C215.899 12.0154 216.877 11.2152 217.948 10.5568C219.039 9.88992 220.214 9.37199 221.441 9.01677C222.733 8.64431 224.072 8.45876 225.416 8.46577C226.688 8.46577 227.921 8.63477 229.116 8.97177C230.311 9.30877 231.434 9.78377 232.483 10.3958C233.533 11.0088 234.493 11.7448 235.367 12.6028C236.229 13.4465 236.985 14.3917 237.619 15.4178C238.248 16.4364 238.739 17.5335 239.079 18.6808C239.423 19.8378 239.596 21.0288 239.596 22.2538C239.596 23.0508 239.584 23.7018 239.561 24.2078C239.538 24.7128 239.419 25.1158 239.205 25.4138C238.99 25.7138 238.635 25.9198 238.136 26.0338C237.638 26.1498 236.906 26.2068 235.942 26.2068H219.396C219.549 27.1868 219.859 28.0068 220.326 28.6668C220.759 29.2915 221.309 29.8258 221.946 30.2398C222.559 30.6308 223.21 30.9098 223.9 31.0798C224.539 31.2415 225.195 31.3261 225.853 31.3318C226.405 31.3318 226.971 31.2738 227.553 31.1598C228.127 31.0472 228.692 30.8935 229.243 30.6998C229.759 30.5205 230.259 30.2973 230.736 30.0328C231.188 29.7808 231.552 29.5158 231.828 29.2408C232.073 29.0408 232.284 28.8918 232.46 28.7918C232.636 28.6918 232.824 28.6428 233.023 28.6428C233.223 28.6428 233.425 28.7128 233.633 28.8498C233.885 29.0259 234.12 29.2258 234.333 29.4468L236.769 32.2048C236.937 32.4048 237.045 32.5848 237.091 32.7448C237.137 32.9058 237.16 33.0708 237.16 33.2388C237.16 33.5458 237.075 33.8098 236.907 34.0318C236.738 34.2551 236.537 34.4525 236.31 34.6178ZM225.256 15.4748C224.658 15.4748 224.08 15.5938 223.521 15.8308C222.954 16.073 222.424 16.3942 221.946 16.7848C221.456 17.1828 221.016 17.6348 220.625 18.1408C220.252 18.6178 219.932 19.1342 219.671 19.6808H231.414C231.106 19.1046 230.757 18.5515 230.369 18.0258C230.001 17.527 229.568 17.0788 229.082 16.6928C228.586 16.3022 228.026 15.9992 227.427 15.7968C226.807 15.5818 226.083 15.4748 225.256 15.4748Z" fill="white"/>
</g>
<defs>
<clipPath id="clip0_555_488">
<rect width="240" height="39" fill="white"/>
</clipPath>
</defs>
</svg>
